<svg width="105" height="104" viewBox="0 0 105 104" fill="none" xmlns="http://www.w3.org/2000/svg">
<ellipse cx="52.5" cy="52" rx="52.5" ry="52" fill="#A237FF"/>
<path d="M50.4292 61.5957C50.3037 61.7343 50.1869 61.8805 50.0792 62.0332C49.9688 62.1958 49.8805 62.3724 49.8167 62.5583C49.7326 62.7236 49.6736 62.9005 49.6417 63.0833C49.6274 63.2774 49.6274 63.4724 49.6417 63.6666C49.6318 64.0492 49.7117 64.4288 49.875 64.7749C50.006 65.1369 50.215 65.4656 50.4872 65.7378C50.7593 66.0099 51.0881 66.2189 51.45 66.3499C51.7991 66.5042 52.1766 66.5839 52.5583 66.5839C52.94 66.5839 53.3175 66.5042 53.6667 66.3499C54.0286 66.2189 54.3573 66.0099 54.6295 65.7378C54.9017 65.4656 55.1107 65.1369 55.2417 64.7749C55.3712 64.4203 55.4306 64.0439 55.4167 63.6666C55.4189 63.2827 55.3453 62.9022 55.2002 62.5469C55.055 62.1915 54.8412 61.8683 54.5708 61.5957C54.2997 61.3224 53.9771 61.1054 53.6217 60.9573C53.2663 60.8092 52.885 60.733 52.5 60.733C52.115 60.733 51.7337 60.8092 51.3783 60.9573C51.0229 61.1054 50.7003 61.3224 50.4292 61.5957ZM52.5 22.8333C46.7314 22.8333 41.0923 24.5438 36.2959 27.7487C31.4994 30.9536 27.7611 35.5088 25.5535 40.8383C23.346 46.1678 22.7684 52.0323 23.8938 57.6901C25.0192 63.3478 27.797 68.5448 31.8761 72.6239C35.9551 76.7029 41.1521 79.4808 46.8099 80.6062C52.4676 81.7316 58.3321 81.154 63.6616 78.9464C68.9911 76.7388 73.5463 73.0005 76.7512 68.204C79.9561 63.4076 81.6667 57.7685 81.6667 51.9999C81.6667 48.1697 80.9122 44.377 79.4465 40.8383C77.9807 37.2997 75.8323 34.0843 73.1239 31.376C70.4156 28.6676 67.2003 26.5192 63.6616 25.0534C60.1229 23.5877 56.3302 22.8333 52.5 22.8333ZM52.5 75.3332C47.8851 75.3332 43.3738 73.9648 39.5367 71.4009C35.6995 68.837 32.7089 65.1928 30.9428 60.9292C29.1768 56.6656 28.7147 51.974 29.615 47.4478C30.5153 42.9216 32.7376 38.764 36.0008 35.5008C39.2641 32.2375 43.4217 30.0153 47.9479 29.1149C52.4741 28.2146 57.1657 28.6767 61.4293 30.4427C65.6929 32.2088 69.3371 35.1995 71.901 39.0366C74.4649 42.8738 75.8333 47.385 75.8333 51.9999C75.8333 58.1883 73.375 64.1232 68.9992 68.4991C64.6233 72.8749 58.6884 75.3332 52.5 75.3332ZM52.5 37.4166C50.9631 37.4156 49.4531 37.8194 48.1218 38.5875C46.7906 39.3555 45.6851 40.4606 44.9167 41.7916C44.7056 42.1236 44.5639 42.4948 44.5001 42.8829C44.4362 43.2711 44.4516 43.6681 44.5452 44.0502C44.6388 44.4323 44.8087 44.7915 45.0447 45.1062C45.2807 45.4209 45.5779 45.6846 45.9185 45.8815C46.259 46.0783 46.6359 46.2043 47.0264 46.2517C47.4169 46.2991 47.8129 46.2671 48.1907 46.1575C48.5685 46.0479 48.9202 45.863 49.2247 45.6139C49.5292 45.3649 49.7802 45.0568 49.9625 44.7083C50.2195 44.2632 50.5895 43.8939 51.0351 43.6378C51.4807 43.3817 51.9861 43.2479 52.5 43.2499C53.2735 43.2499 54.0154 43.5572 54.5624 44.1042C55.1094 44.6512 55.4167 45.393 55.4167 46.1666C55.4167 46.9401 55.1094 47.682 54.5624 48.229C54.0154 48.776 53.2735 49.0833 52.5 49.0833C51.7265 49.0833 50.9846 49.3905 50.4376 49.9375C49.8906 50.4845 49.5833 51.2264 49.5833 51.9999V54.9166C49.5833 55.6901 49.8906 56.432 50.4376 56.979C50.9846 57.526 51.7265 57.8333 52.5 57.8333C53.2735 57.8333 54.0154 57.526 54.5624 56.979C55.1094 56.432 55.4167 55.6901 55.4167 54.9166V54.3916C57.3457 53.6916 58.9673 52.336 59.9981 50.5616C61.0289 48.7872 61.4032 46.707 61.0557 44.6846C60.7082 42.6622 59.661 40.8262 58.0971 39.4977C56.5331 38.1691 54.552 37.4325 52.5 37.4166Z" fill="white"/>
</svg>
