<svg width="18" height="18" viewBox="0 0 18 18" fill="none" xmlns="http://www.w3.org/2000/svg">
<path d="M10.109 1.28571C10.8884 1.9609 11.4233 2.85585 11.5853 3.85714H16.7273C17.129 3.85714 17.4545 4.14496 17.4545 4.5C17.4545 4.85504 17.129 5.14286 16.7273 5.14286H11.5853C11.2324 7.32362 9.11086 9 6.54637 9H2.48431L11.4239 16.9026C11.7078 17.1536 11.7078 17.5607 11.4239 17.8117C11.1399 18.0628 10.6794 18.0628 10.3954 17.8117L0.214453 8.81171C-0.243665 8.40673 0.0807931 7.71429 0.72867 7.71429H6.54637C8.30546 7.71429 9.7728 6.61001 10.1097 5.14286H0.72867C0.327042 5.14286 0.00145778 4.85504 0.00145778 4.5C0.00145778 4.14496 0.327042 3.85714 0.72867 3.85714H10.1097C9.7728 2.38999 8.30546 1.28571 6.54637 1.28571H0.72867C0.327042 1.28571 0.00145778 0.997897 0.00145778 0.642857C0.00145778 0.287817 0.327042 0 0.72867 0H6.54637H16.7273C17.129 0 17.4545 0.287817 17.4545 0.642857C17.4545 0.997897 17.129 1.28571 16.7273 1.28571H10.109Z" fill="#302F2F"/>
</svg>
