<svg width="105" height="104" viewBox="0 0 105 104" fill="none" xmlns="http://www.w3.org/2000/svg">
<ellipse cx="52.5" cy="52" rx="52.5" ry="52" fill="#A237FF"/>
<path d="M48.2576 63.5153C56.9603 63.5153 64.0153 56.4603 64.0153 47.7576C64.0153 39.0549 56.9603 32 48.2576 32C39.5549 32 32.5 39.0549 32.5 47.7576C32.5 56.4603 39.5549 63.5153 48.2576 63.5153Z" stroke="white" stroke-width="4" stroke-linejoin="round"/>
<mask id="path-3-inside-1_68_16" fill="white">
<path d="M70.4308 71.645C70.9043 72.1182 71.6718 72.1182 72.1452 71.645C72.6185 71.1716 72.6185 70.404 72.1452 69.9306L70.4308 71.645ZM72.1452 69.9306L60.024 57.8093L58.3095 59.5238L70.4308 71.645L72.1452 69.9306Z"/>
</mask>
<path d="M70.4308 71.645C70.9043 72.1182 71.6718 72.1182 72.1452 71.645C72.6185 71.1716 72.6185 70.404 72.1452 69.9306L70.4308 71.645ZM72.1452 69.9306L60.024 57.8093L58.3095 59.5238L70.4308 71.645L72.1452 69.9306Z" fill="black"/>
<path d="M72.1452 69.9306L70.731 68.5164L69.0166 70.2308L70.4308 71.645L71.845 73.0592L73.5595 71.3448L72.1452 69.9306ZM70.4308 71.645L67.6024 74.4734L67.6031 74.4742L70.4308 71.645ZM72.1452 71.645L74.9729 74.4742L74.9744 74.4727L72.1452 71.645ZM72.1452 69.9306L74.9744 67.1029L74.9737 67.1022L72.1452 69.9306ZM60.024 57.8093L62.8524 54.9809L60.024 52.1525L57.1955 54.9809L60.024 57.8093ZM58.3095 59.5238L55.4811 56.6953L52.6527 59.5238L55.4811 62.3522L58.3095 59.5238ZM70.4308 71.645L67.6031 74.4742C69.6385 76.5085 72.9376 76.5085 74.9729 74.4742L72.1452 71.645L69.3175 68.8159C70.406 67.7279 72.17 67.7279 73.2585 68.8159L70.4308 71.645ZM72.1452 71.645L74.9744 74.4727C77.0087 72.4373 77.0087 69.1383 74.9744 67.1029L72.1452 69.9306L69.3161 72.7583C68.2282 71.6698 68.2282 69.9058 69.3161 68.8173L72.1452 71.645ZM72.1452 69.9306L74.9737 67.1022L62.8524 54.9809L60.024 57.8093L57.1955 60.6378L69.3168 72.759L72.1452 69.9306ZM60.024 57.8093L57.1955 54.9809L55.4811 56.6953L58.3095 59.5238L61.138 62.3522L62.8524 60.6378L60.024 57.8093ZM58.3095 59.5238L55.4811 62.3522L67.6024 74.4734L70.4308 71.645L73.2592 68.8166L61.138 56.6953L58.3095 59.5238Z" fill="white" mask="url(#path-3-inside-1_68_16)"/>
</svg>
