<svg width="22" height="24" viewBox="0 0 22 24" fill="none" xmlns="http://www.w3.org/2000/svg">
<path d="M10.646 10.6464C10.451 10.8414 10.451 11.1584 10.646 11.3534C10.841 11.5484 11.158 11.5484 11.353 11.3534L14.707 7.99945H17.671C18.339 7.99945 18.967 7.73945 19.439 7.26745L21.853 4.85345C21.996 4.71045 22.039 4.49545 21.961 4.30845C21.884 4.12145 21.701 3.99945 21.499 3.99945H17.999V0.500445C17.999 0.298445 17.877 0.115445 17.69 0.0384452C17.503 -0.0395548 17.289 0.00344516 17.145 0.146445L14.731 2.56045C14.259 3.03244 13.999 3.66045 13.999 4.32845V7.29245L10.646 10.6464ZM15 4.32845C15 3.92745 15.156 3.55145 15.439 3.26745L17 1.70645V4.49945C17 4.77545 17.224 4.99945 17.5 4.99945H20.293L18.732 6.56045C18.448 6.84345 18.072 6.99945 17.671 6.99945H15V4.32845ZM11 4.99945C7.691 4.99945 5 7.69044 5 10.9994C5 14.3084 7.691 16.9994 11 16.9994C14.309 16.9994 17 14.3084 17 10.9994C17 10.8434 16.994 10.6904 16.982 10.5384C16.961 10.2634 17.167 10.0224 17.442 10.0014C17.725 9.98245 17.958 10.1864 17.979 10.4614C17.993 10.6394 18 10.8184 18 11.0004C18 14.8604 14.86 18.0004 11 18.0004C7.14 18.0004 4 14.8604 4 11.0004C4 7.14045 7.14 4.00045 11 4.00045C11.181 4.00045 11.361 4.00745 11.539 4.02145C11.814 4.04245 12.02 4.28345 11.999 4.55845C11.978 4.83345 11.741 5.03245 11.462 5.01845C11.31 5.00645 11.156 5.00045 11.001 5.00045L11 4.99945ZM9.586 9.58545C9.208 9.96345 9 10.4654 9 10.9994C9 11.5334 9.208 12.0354 9.586 12.4134C10.342 13.1694 11.658 13.1694 12.414 12.4134C12.693 12.1344 12.882 11.7844 12.959 11.4004C13.014 11.1294 13.279 10.9524 13.548 11.0094C13.819 11.0644 13.994 11.3284 13.939 11.5984C13.822 12.1764 13.539 12.7024 13.12 13.1204C12.004 14.2834 9.994 14.2844 8.878 13.1204C7.714 12.0044 7.714 9.99445 8.878 8.87845C9.296 8.46045 9.822 8.17645 10.4 8.05945C10.673 8.00644 10.934 8.18044 10.989 8.45045C11.044 8.72145 10.869 8.98444 10.598 9.03944C10.214 9.11744 9.864 9.30544 9.585 9.58444L9.586 9.58545ZM19.941 23.2654C20.071 23.5094 19.978 23.8114 19.734 23.9414C19.495 24.0704 19.188 23.9804 19.058 23.7344L17.139 20.1224C15.384 21.3074 13.271 21.9994 10.999 21.9994C8.727 21.9994 6.614 21.3064 4.859 20.1224L2.94 23.7344C2.81 23.9804 2.503 24.0704 2.264 23.9414C2.02 23.8124 1.927 23.5094 2.057 23.2654L4.048 19.5174C1.581 17.4984 0 14.4314 0 11.0004C0 4.93545 4.935 0.000445179 11 0.000445179C11.886 0.000445179 12.767 0.105445 13.619 0.313445C13.887 0.379445 14.052 0.649445 13.986 0.917445C13.92 1.18645 13.648 1.34845 13.382 1.28445C12.608 1.09545 11.807 0.999445 11.001 0.999445C5.486 1.00045 1 5.48645 1 11.0004C1 16.5144 5.486 21.0004 11 21.0004C16.514 21.0004 21 16.5144 21 11.0004C21 10.1964 20.904 9.39545 20.715 8.61945C20.65 8.35045 20.814 8.08045 21.082 8.01545C21.353 7.94945 21.621 8.11445 21.686 8.38245C21.894 9.23645 21.999 10.1174 21.999 11.0014C21.999 14.4324 20.418 17.4994 17.949 19.5184L19.94 23.2664L19.941 23.2654Z" fill="black"/>
</svg>
