<svg width="105" height="104" viewBox="0 0 105 104" fill="none" xmlns="http://www.w3.org/2000/svg">
<ellipse cx="52.5" cy="52" rx="52.5" ry="52" fill="#A237FF"/>
<path fill-rule="evenodd" clip-rule="evenodd" d="M48.398 23.7632C50.9921 22.5233 54.0079 22.5233 56.602 23.7632C57.729 24.3018 58.7615 25.1827 60.1915 26.4023C60.2656 26.4656 60.3412 26.5298 60.4176 26.595C61.1117 27.1867 61.3305 27.3687 61.5519 27.517C62.1148 27.8942 62.7468 28.156 63.4115 28.2873C63.6729 28.3389 63.9561 28.3648 64.8655 28.4374C64.9655 28.4454 65.0644 28.4532 65.1615 28.4609C67.0349 28.6096 68.388 28.717 69.5657 29.133C72.277 30.0906 74.4094 32.223 75.3669 34.9341C75.7829 36.1119 75.8902 37.4649 76.0389 39.3384C76.0468 39.4356 76.0544 39.5343 76.0626 39.6344C76.1352 40.5438 76.1612 40.8271 76.2128 41.0885C76.3437 41.7532 76.6057 42.3853 76.9828 42.9481C77.1312 43.1694 77.3132 43.3881 77.905 44.0825C77.9701 44.1589 78.0342 44.2342 78.0975 44.3085C79.3173 45.7383 80.1981 46.7709 80.7368 47.8979C81.9767 50.492 81.9767 53.5078 80.7368 56.1019C80.1981 57.2289 79.3173 58.2614 78.0975 59.6915C78.0342 59.7656 77.9701 59.8408 77.905 59.9175C77.3132 60.6117 77.1312 60.8304 76.9828 61.0518C76.6057 61.6147 76.3437 62.2468 76.2128 62.9115C76.1612 63.1728 76.1352 63.456 76.0626 64.3654C76.0544 64.4655 76.0468 64.5643 76.0389 64.6615C75.8902 66.5348 75.7829 67.8879 75.3669 69.0656C74.4094 71.777 72.277 73.9093 69.5657 74.8669C68.388 75.2828 67.0349 75.3901 65.1615 75.5389C65.0644 75.5468 64.9655 75.5543 64.8655 75.5625C63.9561 75.6351 63.6729 75.6611 63.4115 75.7127C62.7468 75.8437 62.1148 76.1056 61.5519 76.4827C61.3305 76.6312 61.1117 76.8132 60.4176 77.405C60.3409 77.47 60.2656 77.5342 60.1915 77.5975C58.7615 78.8172 57.729 79.6981 56.602 80.2368C54.0079 81.4766 50.9921 81.4766 48.398 80.2368C47.271 79.6981 46.2383 78.8172 44.8084 77.5975C44.7342 77.5342 44.659 77.47 44.5826 77.405C43.8881 76.8132 43.6695 76.6312 43.4482 76.4827C42.8853 76.1056 42.2533 75.8437 41.5886 75.7127C41.3272 75.6611 41.0439 75.6351 40.1345 75.5625C40.0344 75.5543 39.9357 75.5468 39.8384 75.5389C37.965 75.3901 36.6119 75.2828 35.4341 74.8669C32.7231 73.9093 30.5906 71.777 29.6331 69.0656C29.217 67.8879 29.1097 66.5348 28.961 64.6615C28.9533 64.5643 28.9455 64.4655 28.9375 64.3654C28.8649 63.456 28.8389 63.1728 28.7873 62.9115C28.6561 62.2468 28.3943 61.6147 28.017 61.0518C27.8687 60.8304 27.6868 60.6117 27.095 59.9175C27.0299 59.8411 26.9657 59.7656 26.9024 59.6915C25.6827 58.2617 24.8019 57.2289 24.2632 56.1019C23.0233 53.5078 23.0233 50.492 24.2632 47.8979C24.8019 46.7709 25.6827 45.7383 26.9024 44.3084C26.9656 44.2342 27.0299 44.1589 27.095 44.0825C27.6868 43.3881 27.8687 43.1694 28.017 42.9481C28.3943 42.3853 28.6561 41.7532 28.7873 41.0885C28.8389 40.8271 28.8649 40.5438 28.9375 39.6344C28.9455 39.5343 28.9533 39.4357 28.961 39.3384C29.1097 37.4649 29.217 36.1119 29.6331 34.9341C30.5906 32.223 32.7231 30.0906 35.4341 29.133C36.6119 28.717 37.965 28.6096 39.8384 28.4609C39.9357 28.4532 40.0344 28.4454 40.1345 28.4374C41.0439 28.3648 41.3272 28.3389 41.5886 28.2873C42.2533 28.156 42.8853 27.8942 43.4482 27.517C43.6695 27.3687 43.8881 27.1867 44.5826 26.595C44.659 26.5298 44.7342 26.4656 44.8085 26.4023C46.2383 25.1827 47.271 24.3018 48.398 23.7632ZM54.7088 27.7242C53.312 27.0566 51.688 27.0566 50.2912 27.7242C49.7513 27.9823 49.182 28.4435 47.4302 29.9364C47.4014 29.961 47.3731 29.9851 47.3451 30.009C46.7699 30.4991 46.3504 30.8569 45.8925 31.1638C44.8472 31.8644 43.6734 32.3506 42.4389 32.5944C41.898 32.7011 41.3483 32.7449 40.5952 32.8048C40.5585 32.8078 40.5214 32.8107 40.4837 32.8137C38.1893 32.9968 37.4607 33.0732 36.8963 33.2726C35.4365 33.7882 34.2882 34.9364 33.7726 36.3962C33.5733 36.9606 33.4969 37.6892 33.3138 39.9836C33.3108 40.0213 33.3078 40.0585 33.3049 40.0952C33.2449 40.8483 33.2012 41.398 33.0944 41.9388C32.8507 43.1733 32.3645 44.3471 31.6639 45.3924C31.357 45.8503 30.9992 46.2698 30.509 46.845C30.4852 46.873 30.461 46.9013 30.4365 46.9302C28.9436 48.6819 28.4824 49.2513 28.2243 49.7911C27.5566 51.1879 27.5566 52.8119 28.2243 54.2087C28.4824 54.7486 28.9436 55.3179 30.4365 57.0697C30.461 57.0986 30.4852 57.1268 30.5091 57.1548C30.9992 57.73 31.357 58.1494 31.6639 58.6073C32.3645 59.6527 32.8507 60.8266 33.0944 62.061C33.2012 62.6017 33.2449 63.1515 33.3049 63.9046C33.3078 63.9413 33.3108 63.9787 33.3138 64.0163C33.4969 66.3106 33.5733 67.0391 33.7726 67.6035C34.2882 69.0633 35.4365 70.2116 36.8963 70.7273C37.4607 70.9268 38.1893 71.0032 40.4837 71.1861L40.5952 71.1951C41.3483 71.2549 41.8981 71.2986 42.4389 71.4054C43.6734 71.6492 44.8472 72.1354 45.8925 72.836C46.3504 73.1428 46.7699 73.5007 47.3451 73.9907L47.4302 74.0633C49.182 75.5564 49.7513 76.0175 50.2912 76.2756C51.688 76.9433 53.312 76.9433 54.7088 76.2756C55.2487 76.0175 55.818 75.5564 57.5697 74.0633L57.6552 73.9907C58.2301 73.5007 58.6495 73.1428 59.1074 72.836C60.1527 72.1354 61.3267 71.6492 62.561 71.4054C63.1018 71.2986 63.6516 71.2549 64.4047 71.1951L64.5164 71.1861C66.8106 71.0032 67.5392 70.9268 68.1036 70.7273C69.5634 70.2116 70.7117 69.0633 71.2273 67.6035C71.4268 67.0391 71.5032 66.3106 71.6861 64.0163L71.6952 63.9046C71.7549 63.1515 71.7987 62.6017 71.9054 62.061C72.1493 60.8266 72.6355 59.6527 73.3361 58.6073C73.6429 58.1494 74.0008 57.73 74.4908 57.1551L74.5634 57.0697C76.0564 55.3179 76.5176 54.7486 76.7757 54.2087C77.4433 52.8119 77.4433 51.1879 76.7757 49.7911C76.5176 49.2513 76.0564 48.6819 74.5634 46.9302L74.4908 46.8447C74.0008 46.2698 73.6429 45.8503 73.3361 45.3924C72.6355 44.3471 72.1493 43.1733 71.9054 41.9388C71.7987 41.398 71.7549 40.8483 71.6952 40.0951L71.6861 39.9836C71.5032 37.6892 71.4268 36.9606 71.2273 36.3962C70.7117 34.9364 69.5634 33.7882 68.1036 33.2726C67.5392 33.0732 66.8106 32.9968 64.5164 32.8137C64.4787 32.8107 64.4414 32.8078 64.4047 32.8048C63.6516 32.7449 63.1018 32.7011 62.561 32.5944C61.3267 32.3506 60.1527 31.8644 59.1074 31.1638C58.6495 30.8569 58.2301 30.4991 57.6549 30.009C57.6269 29.9851 57.5986 29.9609 57.5697 29.9364C55.818 28.4435 55.2487 27.9823 54.7088 27.7242ZM64.2959 43.1307C65.1534 43.988 65.1534 45.3778 64.2959 46.2351L49.6621 60.8692C48.8046 61.7264 47.4148 61.7264 46.5576 60.8692L40.704 55.0155C39.8467 54.1583 39.8467 52.7685 40.704 51.9113C41.5612 51.0541 42.9511 51.0541 43.8083 51.9113L48.1098 56.2125L61.1917 43.1307C62.0489 42.2735 63.4387 42.2735 64.2959 43.1307Z" fill="white"/>
</svg>
