<svg width="460" height="266" viewBox="0 0 460 266" fill="none" xmlns="http://www.w3.org/2000/svg">
<g filter="url(#filter0_d_54_74)">
<path d="M101.06 247.521V244.801L119.9 221.441L120.34 223.001H101.34V219.521H123.94V222.241L105.18 245.601L104.7 244.041H124.46V247.521H101.06ZM137.881 247.761C135.747 247.761 133.854 247.294 132.201 246.361C130.547 245.427 129.241 244.147 128.281 242.521C127.321 240.867 126.841 239.001 126.841 236.921C126.841 234.814 127.321 232.947 128.281 231.321C129.241 229.694 130.547 228.427 132.201 227.521C133.854 226.587 135.747 226.121 137.881 226.121C139.987 226.121 141.867 226.587 143.521 227.521C145.201 228.427 146.507 229.694 147.441 231.321C148.401 232.921 148.881 234.787 148.881 236.921C148.881 239.027 148.401 240.894 147.441 242.521C146.507 244.147 145.201 245.427 143.521 246.361C141.867 247.294 139.987 247.761 137.881 247.761ZM137.881 244.401C139.241 244.401 140.454 244.094 141.521 243.481C142.614 242.867 143.467 242.001 144.081 240.881C144.694 239.734 145.001 238.414 145.001 236.921C145.001 235.401 144.694 234.094 144.081 233.001C143.467 231.881 142.614 231.014 141.521 230.401C140.454 229.787 139.241 229.481 137.881 229.481C136.521 229.481 135.307 229.787 134.241 230.401C133.174 231.014 132.321 231.881 131.681 233.001C131.041 234.094 130.721 235.401 130.721 236.921C130.721 238.414 131.041 239.734 131.681 240.881C132.321 242.001 133.174 242.867 134.241 243.481C135.307 244.094 136.521 244.401 137.881 244.401ZM165.511 226.121C167.245 226.121 168.765 226.454 170.071 227.121C171.405 227.787 172.445 228.801 173.191 230.161C173.938 231.521 174.311 233.241 174.311 235.321V247.521H170.471V235.761C170.471 233.707 169.965 232.161 168.951 231.121C167.965 230.081 166.565 229.561 164.751 229.561C163.391 229.561 162.205 229.827 161.191 230.361C160.178 230.894 159.391 231.681 158.831 232.721C158.298 233.761 158.031 235.054 158.031 236.601V247.521H154.191V226.321H157.871V232.041L157.271 230.521C157.965 229.134 159.031 228.054 160.471 227.281C161.911 226.507 163.591 226.121 165.511 226.121ZM181.418 247.521V226.321H185.258V247.521H181.418ZM183.338 222.241C182.591 222.241 181.965 222.001 181.458 221.521C180.978 221.041 180.738 220.454 180.738 219.761C180.738 219.041 180.978 218.441 181.458 217.961C181.965 217.481 182.591 217.241 183.338 217.241C184.085 217.241 184.698 217.481 185.178 217.961C185.685 218.414 185.938 218.987 185.938 219.681C185.938 220.401 185.698 221.014 185.218 221.521C184.738 222.001 184.111 222.241 183.338 222.241ZM189.51 247.521L198.63 235.681L198.59 237.641L189.91 226.321H194.19L200.83 235.041H199.19L205.83 226.321H210.03L201.23 237.721L201.27 235.681L210.47 247.521H206.11L199.11 238.241L200.67 238.481L193.79 247.521H189.51ZM225.962 247.521V219.521H236.882C239.336 219.521 241.429 219.907 243.162 220.681C244.896 221.454 246.229 222.574 247.162 224.041C248.096 225.507 248.562 227.254 248.562 229.281C248.562 231.307 248.096 233.054 247.162 234.521C246.229 235.961 244.896 237.067 243.162 237.841C241.429 238.614 239.336 239.001 236.882 239.001H228.162L229.962 237.161V247.521H225.962ZM244.682 247.521L237.562 237.361H241.842L249.042 247.521H244.682ZM229.962 237.561L228.162 235.601H236.762C239.322 235.601 241.256 235.054 242.562 233.961C243.896 232.841 244.562 231.281 244.562 229.281C244.562 227.281 243.896 225.734 242.562 224.641C241.256 223.547 239.322 223.001 236.762 223.001H228.162L229.962 221.001V237.561ZM263.905 247.761C261.638 247.761 259.638 247.294 257.905 246.361C256.198 245.427 254.865 244.147 253.905 242.521C252.971 240.894 252.505 239.027 252.505 236.921C252.505 234.814 252.958 232.947 253.865 231.321C254.798 229.694 256.065 228.427 257.665 227.521C259.291 226.587 261.118 226.121 263.145 226.121C265.198 226.121 267.011 226.574 268.585 227.481C270.158 228.387 271.385 229.667 272.265 231.321C273.171 232.947 273.625 234.854 273.625 237.041C273.625 237.201 273.611 237.387 273.585 237.601C273.585 237.814 273.571 238.014 273.545 238.201H255.505V235.441H271.545L269.985 236.401C270.011 235.041 269.731 233.827 269.145 232.761C268.558 231.694 267.745 230.867 266.705 230.281C265.691 229.667 264.505 229.361 263.145 229.361C261.811 229.361 260.625 229.667 259.585 230.281C258.545 230.867 257.731 231.707 257.145 232.801C256.558 233.867 256.265 235.094 256.265 236.481V237.121C256.265 238.534 256.585 239.801 257.225 240.921C257.891 242.014 258.811 242.867 259.985 243.481C261.158 244.094 262.505 244.401 264.025 244.401C265.278 244.401 266.411 244.187 267.425 243.761C268.465 243.334 269.371 242.694 270.145 241.841L272.265 244.321C271.305 245.441 270.105 246.294 268.665 246.881C267.251 247.467 265.665 247.761 263.905 247.761ZM291.531 247.521V243.041L291.331 242.201V234.561C291.331 232.934 290.851 231.681 289.891 230.801C288.958 229.894 287.544 229.441 285.651 229.441C284.398 229.441 283.171 229.654 281.971 230.081C280.771 230.481 279.758 231.027 278.931 231.721L277.331 228.841C278.424 227.961 279.731 227.294 281.251 226.841C282.798 226.361 284.411 226.121 286.091 226.121C288.998 226.121 291.238 226.827 292.811 228.241C294.384 229.654 295.171 231.814 295.171 234.721V247.521H291.531ZM284.571 247.761C282.998 247.761 281.611 247.494 280.411 246.961C279.238 246.427 278.331 245.694 277.691 244.761C277.051 243.801 276.731 242.721 276.731 241.521C276.731 240.374 276.998 239.334 277.531 238.401C278.091 237.467 278.984 236.721 280.211 236.161C281.464 235.601 283.144 235.321 285.251 235.321H291.971V238.081H285.411C283.491 238.081 282.198 238.401 281.531 239.041C280.864 239.681 280.531 240.454 280.531 241.361C280.531 242.401 280.944 243.241 281.771 243.881C282.598 244.494 283.744 244.801 285.211 244.801C286.651 244.801 287.904 244.481 288.971 243.841C290.064 243.201 290.851 242.267 291.331 241.041L292.091 243.681C291.584 244.934 290.691 245.934 289.411 246.681C288.131 247.401 286.518 247.761 284.571 247.761ZM302.277 247.521V217.841H306.117V247.521H302.277ZM321.276 247.761C319.143 247.761 317.489 247.187 316.316 246.041C315.143 244.894 314.556 243.254 314.556 241.121V221.681H318.396V240.961C318.396 242.107 318.676 242.987 319.236 243.601C319.823 244.214 320.649 244.521 321.716 244.521C322.916 244.521 323.916 244.187 324.716 243.521L325.916 246.281C325.329 246.787 324.623 247.161 323.796 247.401C322.996 247.641 322.156 247.761 321.276 247.761ZM310.956 229.481V226.321H324.476V229.481H310.956ZM331.088 255.521C330.075 255.521 329.088 255.347 328.128 255.001C327.168 254.681 326.341 254.201 325.648 253.561L327.288 250.681C327.821 251.187 328.408 251.574 329.048 251.841C329.688 252.107 330.368 252.241 331.088 252.241C332.021 252.241 332.795 252.001 333.408 251.521C334.021 251.041 334.595 250.187 335.128 248.961L336.448 246.041L336.848 245.561L345.168 226.321H348.928L338.648 249.641C338.035 251.134 337.341 252.307 336.568 253.161C335.821 254.014 334.995 254.614 334.088 254.961C333.181 255.334 332.181 255.521 331.088 255.521ZM336.128 248.201L326.448 226.321H330.448L338.688 245.201L336.128 248.201Z" fill="#0F2A44"/>
<path d="M105.772 89.5348V190.109L117.081 187.849V97.4451L224.518 21.7316L328.563 96.3151V187.849L342.134 190.109V89.5348L224.518 2.52075L105.772 89.5348Z" fill="#24364E" stroke="#24364E"/>
<path d="M134.749 107.096V182.563L156.339 179.329V117.877L225.657 70.4412L292.702 115.721V179.329L314.293 182.563V107.096L225.657 43.4888L134.749 107.096Z" fill="#24364E" stroke="#24364E"/>
<path d="M176.794 132.103V176.199L171.112 177.225V128.001L225.657 94.1589L277.93 129.026V178.25L271.111 176.199V132.103L225.657 102.363L176.794 132.103Z" fill="#24364E" stroke="#24364E"/>
<path d="M6.34045 227.843C239.293 113.564 452.928 227.844 452.928 227.844" stroke="#0F2A44" stroke-width="2"/>
</g>
<defs>
<filter id="filter0_d_54_74" x="2.43187e-05" y="-9.77516e-05" width="459.297" height="265.421" filterUnits="userSpaceOnUse" color-interpolation-filters="sRGB">
<feFlood flood-opacity="0" result="BackgroundImageFix"/>
<feColorMatrix in="SourceAlpha" type="matrix" values="0 0 0 0 0 0 0 0 0 0 0 0 0 0 0 0 0 0 127 0" result="hardAlpha"/>
<feOffset dy="4"/>
<feGaussianBlur stdDeviation="2.95"/>
<feComposite in2="hardAlpha" operator="out"/>
<feColorMatrix type="matrix" values="0 0 0 0 0 0 0 0 0 0 0 0 0 0 0 0 0 0 0.25 0"/>
<feBlend mode="normal" in2="BackgroundImageFix" result="effect1_dropShadow_54_74"/>
<feBlend mode="normal" in="SourceGraphic" in2="effect1_dropShadow_54_74" result="shape"/>
</filter>
</defs>
</svg>
